<svg id="icons" enable-background="new 0 0 64 64" height="512" viewBox="0 0 64 64" width="512" xmlns="http://www.w3.org/2000/svg"><path d="m38.805 23.54c-.59-.17-1.19-.3-1.81-.38v-.01-.14-.05-4.31c.949-1.95 2.51-3.55 4.439-4.53 1.36-.71 2.92-1.11 4.561-1.11h5.01c-5.53 0-10.01 4.471-10.01 10v1.36c-.7-.34-1.431-.61-2.19-.83z" fill="#8cc152"/><path d="m41.435 14.12c-1.93.98-3.49 2.58-4.439 4.53v-1.64-4.36c.949-1.95 2.5-3.55 4.43-4.54 1.369-.71 2.919-1.11 4.569-1.11h5.01c-4.53 0-8.34 3-9.58 7.11z" fill="#83b246"/><path d="m36.995 11c0-1.14-.15-2.25-.44-3.3 1.36-3.91 5.07-6.7 9.44-6.7h5.01c-4.53 0-8.34 2.99-9.58 7.11-1.93.99-3.48 2.59-4.43 4.54z" fill="#8cc152"/><path d="m27.975 23.05c-.33.021-.66.061-.979.101v-.141c0-4.09 1.96-7.71 5-9.989v-.011c3.029 2.271 4.979 5.88 5 9.95v.05.141c-.32-.04-.65-.08-.98-.101-.34-.029-.68-.04-1.02-.04h-6c-.342 0-.682.011-1.021.04z" fill="#a0d468"/><path d="m26.995 11c0-1.14.149-2.25.439-3.3.74-2.71 2.37-5.05 4.561-6.69v-.01c2.189 1.64 3.819 3.99 4.56 6.7.29 1.05.44 2.16.44 3.3v1.65 4.359c0-4.1-1.961-7.729-5-10-2.99 2.24-4.94 5.801-5 9.811v-4.19z" fill="#a0d468"/><path d="m26.995 16.82c.06-4.01 2.01-7.57 5-9.811 3.039 2.271 5 5.9 5 10v1.641 4.31c-.021-4.07-1.971-7.68-5-9.95v.011c-3.04 2.279-5 5.899-5 9.989v-4.38-1.62z" fill="#8cc152"/><path d="m22.574 8.11c-1.239-4.12-5.059-7.11-9.579-7.11h5c4.369 0 8.079 2.79 9.439 6.7-.29 1.05-.439 2.16-.439 3.3v1.63c-.95-1.94-2.5-3.529-4.421-4.52z" fill="#8cc152"/><path d="m22.574 14.11c-1.239-4.11-5.059-7.11-9.579-7.11h5c1.649 0 3.21.4 4.579 1.11 1.921.99 3.471 2.58 4.421 4.52v4.19.189 1.62c-.95-1.939-2.511-3.529-4.431-4.51z" fill="#83b246"/><path d="m22.995 23.01c0-5.529-4.471-10-10-10h5c1.649 0 3.199.4 4.569 1.11 1.92.98 3.48 2.57 4.431 4.51v4.38.141s-1.221.22-1.801.39c-.76.21-1.489.49-2.199.83z" fill="#8cc152"/><path d="m49 37.01v11.99c-.008 1.278-.198 4.065-1.91 7.01-.671 1.154-2.291 3.564-5.38 5.26-2.813 1.544-5.439 1.725-6.71 1.73-2 0-4 0-6 0-1.67 0-3.28-.3-4.76-.85-.34-.13-.69-.25-1.01-.4-.31-.14-.94-.47-.95-.48-1.146-.634-3.199-1.973-4.863-4.433-2.198-3.248-2.406-6.512-2.417-7.837v-11.55c-.027-1.142.085-2.084.201-2.756.516-2.984 1.871-5.051 2.499-5.914.148-.204.354-.477.62-.79 1.85-2.18 3.87-3.24 4.68-3.62.25-.118.639-.296 1.13-.48 1.255-.47 2.304-.658 2.866-.739.53-.077 1.21-.143 2.004-.141h6c.79.01 1.943.084 3.103.334.74.16 1.153.304 1.663.484 0 0 .618.23 1.234.542 4.058 2.051 6.168 5.766 6.168 5.766 1.604 2.824 1.819 5.512 1.832 6.874z" fill="#fc6e51"/><path d="m49 37.45c.011-.41.004-.857-.032-1.336-.048-.654-.14-1.245-.248-1.764l-3.99-4 1.56-1.56c-.18-.254-.388-.523-.625-.8-.234-.273-.465-.515-.685-.73l-1.67 1.68-4.24-4.25.8-.8c-2.495-1.015-5.31-.88-5.31-.88l1.68 1.68-4.24 4.24-4.25-4.24 1.68-1.68c-.693-.021-1.517.006-2.434.141-1.141.167-2.107.454-2.866.739l.8.8-4.25 4.24-1.67-1.67c-.23.24-.47.48-.68.73-.22.26-.43.52-.63.79l1.57 1.57-4 4c-.092.428-.172.909-.222 1.438-.059.612-.067 1.171-.048 1.662l4.27 4.21-4.27 4.27v2.83l4.27 4.21-2.61 2.62c.144.269.307.551.49.841.203.322.408.617.608.884l.01-.01 2.922-2.916 4.24 4.24-2.65 2.64c.01.01.64.34.95.48.32.15.67.27 1.01.4l2.1-2.11 2.96 2.961h5.4l2.95-2.96 2.11 2.11c.34-.13.68-.25 1-.4.22-.1.43-.21.64-.31.11-.06.21-.11.31-.17l-2.64-2.64 4.24-4.24 2.92 2.92c.09-.12.18-.25.26-.37.03-.04.06-.08.08-.12.09-.12.16-.24.24-.36.09-.14.27-.44.28-.45.08-.14.16-.28.24-.43l-2.6-2.61 4.27-4.21v-2.88l-4.27-4.22c1.423-1.403 2.847-2.807 4.27-4.21zm-11.35-11.35 4.25 4.25-4.25 4.24-4.24-4.24zm-5.65 16.98 4.24 4.24-4.24 4.24-4.25-4.24zm-5.66 2.82-4.24-4.24 4.24-4.24 4.24 4.24zm7.07-4.24 4.24-4.24 4.25 4.24-4.25 4.24zm2.83-5.66-4.24 4.25-4.25-4.25 4.25-4.24zm-9.9-9.9 4.24 4.25-4.24 4.24-4.24-4.24zm-9.9 9.9 4.24-4.24 4.25 4.24-4.25 4.25zm4.24 15.56-4.24-4.24 4.24-4.25 4.25 4.25zm1.42 1.41 4.24-4.24 4.24 4.24-4.24 4.25zm9.82 9.98c-.231-.263-4.17-4.32-4.17-4.32l4.25-4.24 4.24 4.24zm5.73-5.73-4.24-4.25 4.24-4.24 4.25 4.24zm9.9-9.9-4.24 4.24-4.24-4.24 4.24-4.24zm-4.24-7.07-4.24-4.25 4.24-4.24 4.24 4.25z" fill="#e9573f"/><path d="m48.955 36.01s0 0 0-.01c-.221-3.03-1.421-5.81-3.29-8.01-.633-.745-2.194-2.428-4.67-3.62-1.272-.613-2.367-.894-2.792-.995-1.264-.3-2.372-.371-3.208-.366-1.335 0-2.669 0-4.004 0 .34 0 .68.011 1.02.04.33.021.98.111.98.111.619.08 1.22.21 1.81.38.76.22 1.49.49 2.19.83 1.81.86 3.399 2.11 4.67 3.62 1.869 2.2 3.069 4.979 3.29 8.01v.01c.029.33.04.66.04 1v10.31 1.68c0 2.74-.801 5.3-2.181 7.46-1.45 2.3-3.56 4.15-6.05 5.29-1.76.8-3.72 1.25-5.77 1.25h2.293 1.711c2.05 0 4.01-.45 5.77-1.25 2.49-1.14 4.6-2.99 6.05-5.29 1.38-2.16 2.181-4.72 2.181-7.46v-1.68-10.31c0-.34-.011-.67-.04-1z" fill="#e9573f"/><g fill="#dd4a36"><path d="m41.71 61.272-1.644-1.644c-.512.438-1.054.841-1.625 1.203l1.36 1.314c.341-.124.636-.248.963-.396.319-.146.633-.306.939-.475.003 0 .005-.001.007-.002z"/><path d="m35.42 62.28-.72.72h-3.53c.23 0 .77-.05.77-.05 1.2-.08 2.38-.3 3.48-.67z"/><path d="m44.991 41.928v2.828l2.563 2.562-2.596 2.596c-.113 1.731-.544 3.378-1.238 4.883l2.514 2.514c.637-.833 1.097-1.73 1.098-1.731l-2.605-2.605 4.269-4.215v-1.44l-.001-1.391z"/><path d="m48.737 34.361-4.013-4.013 1.564-1.564c-.199-.271-.406-.537-.624-.794-.214-.254-.449-.49-.682-.729l-1.673 1.673-4.243-4.244.804-.822c-2.216-.943-5.281-.868-5.313-.86l.673.673c.604.193 1.194.413 1.76.688 1.81.86 3.399 2.11 4.67 3.62 1.182 1.391 2.094 3.014 2.662 4.784l3.229 3.23-2.562 2.562v2.828l4.011-3.982c.009-.432-.001-.904-.04-1.411-.047-.602-.128-1.151-.223-1.639z"/></g></svg>